<?xml version="1.0" encoding="UTF-8"?><svg version="1.1" width="512px" height="512px" viewBox="0 0 512.0 512.0" xmlns="http://www.w3.org/2000/svg" xmlns:xlink="http://www.w3.org/1999/xlink"><defs><clipPath id="i0"><path d="M365.858544,0 C416.675112,0 435.102427,5.29105984 453.680205,15.2265641 C472.257983,25.1620684 486.837932,39.7420171 496.773436,58.3197949 C506.70894,76.8975727 512,95.3248882 512,146.141456 L512,365.858544 C512,416.675112 506.70894,435.102427 496.773436,453.680205 C486.837932,472.257983 472.257983,486.837932 453.680205,496.773436 C435.102427,506.70894 416.675112,512 365.858544,512 L146.141456,512 C95.3248882,512 76.8975727,506.70894 58.3197949,496.773436 C39.7420171,486.837932 25.1620684,472.257983 15.2265641,453.680205 C5.29105984,435.102427 0,416.675112 0,365.858544 L0,146.141456 C0,95.3248882 5.29105984,76.8975727 15.2265641,58.3197949 C25.1620684,39.7420171 39.7420171,25.1620684 58.3197949,15.2265641 C76.8975727,5.29105984 95.3248882,0 146.141456,0 L365.858544,0 Z"></path></clipPath><linearGradient id="i1" x1="256px" y1="0.540540539px" x2="256px" y2="511.734546px" gradientUnits="userSpaceOnUse"><stop stop-color="#EDF6F5" offset="0%"></stop><stop stop-color="#BBC3C2" offset="99.9480988%"></stop></linearGradient><clipPath id="i2"><path d="M3.588006,0 L3.588006,3.56369756 L0,3.56369756 L0,0 L3.588006,0 Z"></path></clipPath><clipPath id="i3"><path d="M3.58163298,0 L3.58163298,3.56369756 L0,3.56369756 L0,0 L3.58163298,0 Z"></path></clipPath><clipPath id="i4"><path d="M3.588006,0 L3.588006,3.56369756 L0,3.56369756 L0,0 L3.588006,0 Z"></path></clipPath><clipPath id="i5"><path d="M3.58163307,0 L3.58163307,3.56369756 L0,3.56369756 L0,0 L3.58163307,0 Z"></path></clipPath><clipPath id="i6"><path d="M3.58800596,0 L3.58800596,3.56369756 L0,3.56369756 L0,0 L3.58800596,0 Z"></path></clipPath><clipPath id="i7"><path d="M3.58163285,0 L3.58163285,3.56369756 L0,3.56369756 L0,0 L3.58163285,0 Z"></path></clipPath><clipPath id="i8"><path d="M4.24442638,0 C6.58969504,0 8.49522564,1.89050197 8.49522564,4.22321921 C8.49522564,6.1143546 7.24611523,7.71469248 5.51902877,8.25320688 L5.51902877,27.0308835 L2.96982398,27.0308835 L2.96982398,8.25320688 C1.24911064,7.71469248 0,6.1143546 0,4.22321921 C0,1.89050197 1.89915772,0 4.24442638,0 Z"></path></clipPath><clipPath id="i9"><path d="M4.24442615,0 C6.58969481,0 8.49522541,1.89050197 8.49522541,4.22321921 C8.49522541,6.1143546 7.246115,7.71469248 5.51902877,8.25320688 L5.51902877,27.0308835 L2.96982375,27.0308835 L2.96982375,8.25320688 C1.24911041,7.71469248 0,6.1143546 0,4.22321921 C0,1.89050197 1.89915772,0 4.24442615,0 Z"></path></clipPath><clipPath id="i10"><path d="M4.24094613,9.61340744e-06 L4.45312698,0.00474990219 C6.79202253,0.114353393 8.60195805,2.09228473 8.49361699,4.42183423 C8.4043948,6.31106911 7.0788082,7.85122001 5.33260287,8.30864039 L4.4467541,27.0660438 L1.89754907,26.946937 L2.78977073,8.18953369 C1.08817649,7.57119256 -0.0844578141,5.91446916 0.00476437437,4.0252343 C0.119478597,1.6956848 2.10785855,-0.104853611 4.45312698,0.00474990219 Z"></path></clipPath><clipPath id="i11"><path d="M7.00394065,2.43883162 C7.9981306,0.324687845 10.5282165,-0.588885823 12.6504297,0.396912116 C14.7790158,1.38271006 15.6967296,3.89598796 14.7089127,6.01013174 C13.8995401,7.7238743 12.0896046,8.64885181 10.2987881,8.41190552 L2.31340351,25.4289575 L0,24.3582643 L7.98538456,7.34057884 C6.65342498,6.12860489 6.20094109,4.15257418 7.00394065,2.43883162 Z"></path></clipPath><clipPath id="i12"><path d="M4.10422001,0 L52.220464,27.8760343 L53.6926299,37.6073044 C31.5209195,28.1066451 11.5988826,15.8690659 0,3.26529728 L4.10422001,0 Z"></path></clipPath><clipPath id="i13"><path d="M92.0709107,0 C91.242419,3.38757152 90.2163641,6.76373938 88.9863726,10.113932 C81.3578768,30.8467324 40.5514782,29.4427939 0,17.1830409 L31.7567209,0.356052895 Z"></path></clipPath><clipPath id="i14"><path d="M14.8782583,0.010088926 C22.7935397,0.304054379 28.9689887,6.91954414 28.669457,14.7869213 C28.3762985,22.6542984 21.7228735,28.793995 13.807592,28.5000295 C5.89231063,28.206064 -0.283138335,21.5905743 0.0100202189,13.7231972 C0.309551885,5.85582001 6.96297666,-0.283242981 14.8782583,0.010088926 Z"></path></clipPath><clipPath id="i15"><path d="M0,0 C0,0 8.58444782,4.37653738 15.327095,2.45372457 L15.3158878,2.46589695 C14.9514773,2.85914323 5.78338133,12.5646537 0,0 Z"></path></clipPath><clipPath id="i16"><path d="M125.736466,0.0576770835 C126.756148,-0.197008487 127.782203,0.415630726 128.043496,1.42486987 C128.298417,2.43410901 127.680235,3.45855328 126.666926,3.71260531 L117.330463,6.04912381 C118.324652,8.77780744 118.522216,12.3358031 116.916217,12.7368379 L75.0582709,23.2156926 L69.8706389,64.6876289 L41.8038921,79.4530574 L36.1127921,65.3560203 C35.7431573,64.4506826 35.5710861,63.5174692 35.551967,62.5969264 C35.5073559,62.2003264 35.4946099,61.7929562 35.5455939,61.3786169 L39.7772742,27.5200057 C38.66837,28.3556531 37.5084818,29.2958357 36.3549664,30.2962053 C34.4366898,31.9503944 32.531159,33.7528336 30.906041,35.4735451 C29.9245969,36.5131945 28.5735183,37.0713488 27.1905746,37.0713488 C26.5469004,37.0713488 25.9032262,36.9503414 25.285044,36.7019912 C18.9438966,34.1589368 11.8634798,32.2101484 8.96375911,32.1455268 C7.79749782,33.4823092 5.96844326,34.1747754 4.10115062,33.8047844 C1.33526322,33.2554998 -0.449180262,30.5851023 0.098898806,27.84058 C0.5067716,25.8087974 1.76862806,24.1349682 3.64866675,23.1263625 C8.3455769,20.6092833 17.7903813,23.0661756 25.9032262,26.0685512 C28.0063203,24.0158616 30.931533,21.3587687 34.0989202,19.0589957 C37.655061,16.4817297 41.5298527,14.3530143 44.9139223,14.0280051 C45.4874934,13.9716195 46.0546914,14.0178683 46.5836514,14.1445776 L47.7244207,14.2852249 C48.3362298,15.3717567 49.0818724,16.3936668 49.954975,17.3294145 C52.8292037,20.4059149 56.7294873,22.1861799 60.9484215,22.3426659 C61.8278971,22.3749768 62.7137459,22.3356969 63.5804756,22.2248262 C69.4181551,21.4759746 74.1533033,17.6474547 76.2181594,12.4707485 L109.192126,4.21817521 L109.351451,4.1605225 Z"></path></clipPath><clipPath id="i17"><path d="M2.56195102,0 L4.37825943,0.831846377 L6.19456807,1.66305903 L5.45529857,5.64426343 L5.213124,5.79758172 C4.17432306,6.07634209 3.11640303,5.96800562 2.19231627,5.54669735 C1.2746024,5.12412209 0.497094919,4.39491024 0.0382379823,3.43318707 L0,3.14999199 L2.56195102,0 Z"></path></clipPath><clipPath id="i18"><path d="M21.7447183,0 C22.6751782,1.69346901 24.8611214,2.43535174 26.5563427,2.49617217 C26.2185731,2.7590937 25.8744303,3.01504652 25.5302878,3.26212945 C20.6740523,12.731745 15.1741426,18.8803112 10.2478038,25.8467856 C9.21919964,26.053385 7.88545561,26.3317716 6.52223003,26.620279 L5.97602086,26.7360756 C2.97041005,27.3743178 0,28.0217498 0,28.0217498 C0,28.0217498 1.88003861,21.671716 1.86729262,18.3817104 C8.6354318,13.4324471 14.403008,9.50636121 21.610885,1.68079813 C21.6554961,1.34501855 21.6937344,0.337046569 21.7447183,0 Z"></path></clipPath><clipPath id="i19"><path d="M9.7668344,0.441461734 C13.5332847,1.81245578 15.4706807,5.96091659 14.0941099,9.70770896 C12.7175393,13.4557685 8.54321621,15.3823826 4.77676588,14.0113886 C1.00394243,12.6403945 -0.933453268,8.49256742 0.443117312,4.74450783 C1.826061,0.997715468 5.99401119,-0.928898587 9.7668344,0.441461734 Z"></path></clipPath><clipPath id="i20"><path d="M9.76307939,0.441455217 C13.5359028,1.81244927 15.4732985,5.96091008 14.096728,9.70833525 C12.7137843,13.4551283 8.53946097,15.3817417 4.77301063,14.0113825 C1.0065603,12.641021 -0.937208511,8.49192672 0.445735181,4.74513481 C1.82230599,0.99770895 5.99662906,-0.928905335 9.76307939,0.441455217 Z"></path></clipPath><clipPath id="i21"><path d="M12.9073142,6.73341974 C14.863827,1.41543265 20.7907292,-1.31831935 26.1376864,0.626667588 C31.4846437,2.57102098 34.2377863,8.45856612 32.2812712,13.7765532 C30.6242874,18.2772656 26.1249407,20.9147186 21.5363713,20.4427267 L19.4842619,26.0375736 L24.5061964,27.8653543 C25.1116329,28.0845612 25.4239099,28.7542197 25.2008532,29.3535545 C24.9841707,29.9535228 24.3086314,30.2645939 23.7031972,30.045387 L18.6812627,28.2182397 L17.4448983,31.5671651 L22.4732045,33.3949458 C23.0722669,33.6141528 23.3909179,34.2838112 23.1678636,34.883146 C22.944807,35.4831143 22.2756417,35.7941854 21.6702053,35.5749785 L16.641899,33.7471975 L15.4119063,37.0967566 L20.4402149,38.9239038 C21.0392773,39.1431108 21.3515543,39.8134027 21.1348717,40.4127375 C20.9118174,41.0127059 20.2362781,41.3231434 19.6372134,41.1039365 L14.6089071,39.276789 L13.3789167,42.6263481 L18.400849,44.4534954 C19.0062854,44.6727023 19.3185647,45.3429942 19.095508,45.9423291 C18.8788255,46.5416637 18.2032862,46.852735 17.5978497,46.633528 L12.5759175,44.8063805 L11.3459248,48.1559396 L16.3678593,49.9830869 C16.9732958,50.2022938 17.2855727,50.8725857 17.0625184,51.4719206 C16.8458358,52.0712554 16.1702965,52.3823265 15.5648601,52.1631195 L10.5429256,50.3359721 L5.13223716,65.031077 L0.384344586,63.3033966 L5.78865895,48.6082916 L0.766724409,46.7811441 C0.161287966,46.5619372 -0.150989005,45.8916453 0.0720653179,45.2923107 C0.288747907,44.6929759 0.964287203,44.3819046 1.56335191,44.6011117 L6.59165819,46.428259 L7.82164858,43.0787001 L2.79971633,41.2515526 C2.19427988,41.0323457 1.88200062,40.3626873 2.10505724,39.7627192 C2.32173983,39.1633843 2.99727912,38.852313 3.60271556,39.0715202 L8.62464781,40.8986674 L9.86101223,37.5491086 L4.83270595,35.7219611 C4.22726951,35.5027542 3.91499254,34.8330957 4.13804916,34.2331276 C4.36110348,33.6337928 5.03026874,33.3227215 5.63570519,33.5419287 L10.6640138,35.3690759 L11.8940041,32.0201506 L6.86569787,30.1923696 C6.26663316,29.9731626 5.95435619,29.3035042 6.17103878,28.7041696 C6.3940954,28.1042013 7.06963469,27.79313 7.66869711,28.0129707 L12.6970034,29.8401179 L13.9269961,26.490559 L8.90506152,24.6627781 C8.29962508,24.4435711 7.98734811,23.7739127 8.2040307,23.1745781 C8.42708502,22.5752433 9.10262431,22.2635385 9.70168902,22.4833791 L14.7299953,24.3105264 L16.7884787,18.7156797 C12.9774171,16.1346123 11.2503304,11.2341322 12.9073142,6.73341974 Z"></path></clipPath><clipPath id="i22"><path d="M10.2350579,0.4829524 L9.43205861,2.66298498 C6.51321884,1.60052797 3.2629823,3.09949834 2.19868915,6.00430782 L0,5.20667311 C1.51677812,1.10065999 6.10534519,-1.01918572 10.2350579,0.4829524 Z"></path></clipPath><clipPath id="i23"><path d="M31.345792,0.34559472 C34.3092429,1.42262215 35.845139,4.713262 34.7617267,7.65861774 L11.1242235,71.9179453 C10.066607,74.7937946 6.88338843,76.3184775 3.97563068,75.3875371 L3.76339436,75.3150211 C0.799943488,74.2373597 -0.735952593,70.9460859 0.347459663,68.0013641 L23.9913357,3.74140264 C25.0747477,0.796046894 28.3823414,-0.732066667 31.345792,0.34559472 Z"></path></clipPath><clipPath id="i24"><path d="M55.4489783,3.16865802 C58.1192706,-0.342455073 63.1921884,-1.0437907 66.7228373,1.60886725 C70.2534862,4.26152544 70.9608906,9.30455331 68.2905983,12.8156666 L14.4577624,83.6429681 C11.7938432,87.1534465 6.72092528,87.8554168 3.19027639,85.2033928 L2.97727204,85.0379938 C-0.373957553,82.3449011 -0.993411176,77.4354181 1.61614232,73.9959588 Z"></path></clipPath><clipPath id="i25"><path d="M40.7617875,0 L41.8706917,8.77018042 L1.10890424,13.8651593 L0,5.09497864 L40.7617875,0 Z"></path></clipPath><clipPath id="i26"><path d="M7.20287029,76.9469548 C29.5593979,16.1791008 97.2407898,-15.0654989 158.370726,7.16056996 C219.494287,29.386639 250.925986,96.6667148 228.569458,157.434569 C206.21293,218.202423 138.531537,249.446389 77.4016021,227.220321 C16.271667,204.99425 -15.1536574,137.714809 7.20287029,76.9469548 Z M151.800149,25.0101016 C100.66947,6.41995445 43.8604378,32.646868 25.1620192,83.4750151 C6.45722791,134.303796 191.91189,201.733388 210.610308,150.905875 C229.3151,100.077094 202.93083,43.6008823 151.800149,25.0101016 Z"></path></clipPath><clipPath id="i27"><path d="M13.3253244,0.0118524017 C17.7418225,0.250066581 21.1641303,4.03993889 20.9219562,8.43421632 L16.0848387,97.074937 C15.8472339,101.386304 12.174146,104.740791 7.86442875,104.64026 L7.6151048,104.63061 C3.19223497,104.392395 -0.230072836,100.601889 0.0121012821,96.2082457 L4.8492188,7.56752501 C5.09139291,3.17324759 8.90245457,-0.226993439 13.3253244,0.0118524017 Z"></path></clipPath><clipPath id="i28"><path d="M6.53871267,0 L34.3760295,30.0383282 L27.8373191,36.0278728 L0,5.98954686 L6.53871267,0 Z"></path></clipPath><clipPath id="i29"><path d="M4.49490131,0.203375888 C6.22836064,0.834387928 7.12058253,2.74452965 6.48965409,4.4690426 C5.85235301,6.19482255 3.93407619,7.08115368 2.19424374,6.45014164 C0.460784407,5.8197631 -0.431437249,3.90962115 0.205864065,2.18447493 C0.836792267,0.45869498 2.76144197,-0.427636153 4.49490131,0.203375888 Z"></path></clipPath><clipPath id="i30"><path d="M1.78144178,0.080891586 C2.46972707,0.331142232 2.82661582,1.08886357 2.57169548,1.7737271 C2.32314779,2.45859062 1.55838631,2.8102088 0.870101018,2.55995793 C0.181815728,2.30907355 -0.168699914,1.55135244 0.0798475457,0.867122414 C0.334768117,0.182258887 1.09315649,-0.169992788 1.78144178,0.080891586 Z"></path></clipPath><clipPath id="i31"><path d="M0.205863204,2.18440355 C0.836793473,0.459257789 2.76144295,-0.427706382 4.49490136,0.20330428 C6.22835978,0.83431724 7.12058166,2.74445919 6.48965369,4.46960495 C5.85235399,6.19475071 3.93407624,7.08171718 2.1942438,6.45070422 C0.460785383,5.82032522 -0.431436502,3.90954931 0.205863204,2.18440355 Z"></path></clipPath><clipPath id="i32"><path d="M0.0823999921,0.867120808 C0.337319874,0.1822582 1.09570779,-0.169992557 1.78399285,0.0808915881 C2.47227791,0.331141775 2.8291685,1.08949523 2.57424632,1.77372618 C2.32570047,2.45858879 1.56093853,2.81084184 0.872653465,2.5599577 C0.184368404,2.30970751 -0.172522187,1.55135176 0.0823999921,0.867120808 Z"></path></clipPath><clipPath id="i33"><path d="M55.044505,9.38868006 C67.6312047,21.9081872 67.6312047,42.2013066 55.0381322,54.7170124 C42.4450597,67.2333519 22.0323007,67.2320847 9.43922819,54.7125777 C-3.14747136,42.1949712 -3.14747136,21.9018517 9.44560119,9.38677943 C22.0386737,-3.13019349 42.4514325,-3.12829286 55.044505,9.38868006 Z"></path></clipPath><clipPath id="i34"><path d="M38.2180466,1.72799122 C52.9715703,7.0922272 60.5618283,23.3306507 55.1638865,37.995979 C49.7659451,52.6625742 33.4319142,60.202408 18.6783905,54.8381719 C3.93123973,49.4745695 -3.65901808,33.2367797 1.73892343,18.5701843 C7.13686497,3.90422254 23.4708958,-3.63561119 38.2180466,1.72799122 Z"></path></clipPath><clipPath id="i35"><path d="M2.98256997,0 L4.55033092,0.571458702 L1.56776118,8.67641565 L0,8.10559049 L2.98256997,0 Z"></path></clipPath><clipPath id="i36"><path d="M2.98256981,0 L4.55670388,0.57145861 L1.57413413,8.67641578 L0,8.10559044 L2.98256981,0 Z"></path></clipPath><clipPath id="i37"><path d="M1.65061026,0 L2.47272883,4.66860218 L0.822118573,4.95559864 L0,0.286996439 L1.65061026,0 Z"></path></clipPath><clipPath id="i38"><path d="M1.65061003,0 L2.46635572,4.66796866 L0.822118573,4.95433146 L0,0.2876298 L1.65061003,0 Z"></path></clipPath><clipPath id="i39"><path d="M1.28097551,0 L4.34002147,3.63338763 L3.05904596,4.70154659 L0,1.0662583 L1.28097551,0 Z"></path></clipPath><clipPath id="i40"><path d="M1.28734839,0 L4.34639433,3.63338768 L3.05904594,4.70154659 L0,1.06752542 L1.28734839,0 Z"></path></clipPath><clipPath id="i41"><path d="M4.69691016,0 L4.98369574,1.63961752 L0.286785557,2.45562507 L0,0.815373815 L4.69691016,0 Z"></path></clipPath><clipPath id="i42"><path d="M4.69053732,0 L4.98369587,1.63898403 L0.286785672,2.45562507 L0,0.816007543 L4.69053732,0 Z"></path></clipPath><clipPath id="i43"><path d="M3.65173611,0 L4.72877521,1.27722919 L1.07066608,4.31698421 L0,3.04038852 L3.65173611,0 Z"></path></clipPath><clipPath id="i44"><path d="M3.65173616,0 L4.72877507,1.2784963 L1.07066603,4.31888468 L0,3.04228901 L3.65173616,0 Z"></path></clipPath><clipPath id="i45"><path d="M0.579944133,0 L8.73102703,2.96372937 L8.1574559,4.52668786 L0,1.56232502 L0.579944133,0 Z"></path></clipPath><clipPath id="i46"><path d="M0.573571113,0 L8.72465399,2.96309576 L8.15108288,4.52605425 L0,1.56232499 L0.573571113,0 Z"></path></clipPath><clipPath id="i47"><path d="M2.25604647,0 L12.274422,18.6420979 L10.0247486,19.8388668 L0,1.19613544 L2.25604647,0 Z"></path></clipPath><clipPath id="i48"><path d="M5.03467962,0 L6.85736137,0.359220616 L1.82268152,25.7029707 L0,25.3450171 L5.03467962,0 Z"></path></clipPath><clipPath id="i49"><path d="M42.2262804,1.28390395 C59.7903028,6.29335402 69.9425116,24.5097088 64.9078317,41.9727773 C59.8667788,59.4377463 41.5379951,69.5320385 23.9739727,64.5206878 C6.40357759,59.5106041 -3.74863121,41.2948827 1.29242162,23.8299137 C6.33347444,6.36811246 24.6558851,-3.72554612 42.2262804,1.28390395 Z"></path></clipPath><clipPath id="i50"><path d="M39.2253616,1.77347898 C54.3676391,7.2783622 62.1554604,23.943796 56.6173125,38.9949538 C51.0791648,54.0480123 34.311769,61.7855123 19.1758646,56.2806293 C4.03358696,50.775746 -3.75423422,34.1115794 1.78391357,19.0585209 C7.32206139,4.007363 24.0894572,-3.73140425 39.2253616,1.77347898 Z"></path></clipPath><clipPath id="i51"><path d="M3.05904594,0 L4.67141798,0.586663809 L1.61237205,8.90512586 L0,8.31846205 L3.05904594,0 Z"></path></clipPath><clipPath id="i52"><path d="M3.06541891,0 L4.67779119,0.586663717 L1.61237214,8.90512588 L0,8.31846194 L3.06541891,0 Z"></path></clipPath><clipPath id="i53"><path d="M1.68884824,0 L2.5364588,4.79214371 L0.841237449,5.08610916 L0,0.294598993 L1.68884824,0 Z"></path></clipPath><clipPath id="i54"><path d="M1.69522135,0 L2.53645903,4.79024301 L0.841237679,5.08484221 L0,0.29459897 L1.69522135,0 Z"></path></clipPath><clipPath id="i55"><path d="M1.31921356,0 L4.45473569,3.72905315 L3.13552211,4.82445458 L0,1.09413436 L1.31921356,0 Z"></path></clipPath><clipPath id="i56"><path d="M1.31284061,0 L4.45473585,3.72905303 L3.13552213,4.82508817 L0,1.09540141 L1.31284061,0 Z"></path></clipPath><clipPath id="i57"><path d="M4.8179974,0 L5.11752897,1.68269885 L0.293158577,2.52024694 L0,0.836914593 L4.8179974,0 Z"></path></clipPath><clipPath id="i58"><path d="M4.81799726,0 L5.11752893,1.68269862 L0.299531436,2.52024671 L0,0.837548091 L4.81799726,0 Z"></path></clipPath><clipPath id="i59"><path d="M3.75370432,0 L4.85623547,1.31080712 L1.10253116,4.43038866 L0,3.12021504 L3.75370432,0 Z"></path></clipPath><clipPath id="i60"><path d="M3.75370434,0 L4.85623547,1.31080714 L1.10253113,4.43102235 L0,3.12148229 L3.75370434,0 Z"></path></clipPath><clipPath id="i61"><path d="M0.59269015,0 L8.96045548,3.04228904 L8.36776533,4.64642813 L0,1.60413912 L0.59269015,0 Z"></path></clipPath><clipPath id="i62"><path d="M0.586317107,0 L8.95408257,3.04165551 L8.36776546,4.64579461 L0,1.6035056 L0.586317107,0 Z"></path></clipPath><clipPath id="i63"><path d="M20.2598065,0 L21.2348774,2.41824614 L0.975070732,10.4845567 L0,8.06757779 L20.2598065,0 Z"></path></clipPath><clipPath id="i64"><path d="M1.73983245,0 L12.6376836,24.1995654 L10.8978512,24.9750261 L0,0.775460599 L1.73983245,0 Z"></path></clipPath><clipPath id="i65"><path d="M64.8314215,23.5921506 C70.0063075,41.0172063 59.9943049,59.3108537 42.4621478,64.4527149 C24.9363636,69.5952098 6.53110366,59.6377636 1.36259057,42.2133415 C-3.81229551,24.7889196 6.20608003,6.49653912 23.7318641,1.3534108 C41.2576485,-3.78781689 59.6629083,6.16836217 64.8314215,23.5921506 Z"></path></clipPath><clipPath id="i66"><path d="M39.2254282,1.77321871 C54.3677057,7.27873548 62.1555267,23.9441691 56.617379,38.9953269 C51.0792312,54.0483855 34.3118356,61.7858856 19.1695581,56.2810024 C4.03365344,50.7761191 -3.75416775,34.1113191 1.78398006,19.0588942 C7.32212784,4.00710274 24.0895235,-3.73103095 39.2254282,1.77321871 Z"></path></clipPath><clipPath id="i67"><path d="M3.05904617,0 L4.67141821,0.586663809 L1.61237228,8.90512586 L0,8.31846205 L3.05904617,0 Z"></path></clipPath><clipPath id="i68"><path d="M3.05904589,0 L4.67779105,0.586663947 L1.61237223,8.90512588 L0,8.31846217 L3.05904589,0 Z"></path></clipPath><clipPath id="i69"><path d="M1.68884824,0 L2.53645903,4.79214371 L0.841237679,5.08610918 L0,0.294599016 L1.68884824,0 Z"></path></clipPath><clipPath id="i70"><path d="M1.69522135,0 L2.5364588,4.79024301 L0.841237679,5.08420848 L0,0.293965472 L1.69522135,0 Z"></path></clipPath><clipPath id="i71"><path d="M1.31921358,0 L4.45473569,3.72905313 L3.13552213,4.82445456 L0,1.09413434 L1.31921358,0 Z"></path></clipPath><clipPath id="i72"><path d="M1.31921372,0 L4.46110874,3.72905303 L3.14189524,4.82445444 L0,1.09540141 L1.31921372,0 Z"></path></clipPath><clipPath id="i73"><path d="M4.8179974,0 L5.11115597,1.68269885 L0.293158577,2.52024694 L0,0.836914593 L4.8179974,0 Z"></path></clipPath><clipPath id="i74"><path d="M4.81799749,0 L5.11752916,1.68206535 L0.293158554,2.52024694 L0,0.837548091 L4.81799749,0 Z"></path></clipPath><clipPath id="i75"><path d="M3.75370432,0 L4.85623547,1.31080712 L1.10253116,4.43038889 L0,3.12021527 L3.75370432,0 Z"></path></clipPath><clipPath id="i76"><path d="M3.74733123,0 L4.85623547,1.31144069 L1.09615802,4.43165589 L0,3.12211583 L3.74733123,0 Z"></path></clipPath><clipPath id="i77"><path d="M0.59269015,0 L8.96045548,3.04228892 L8.3677653,4.64642802 L0,1.604139 L0.59269015,0 Z"></path></clipPath><clipPath id="i78"><path d="M0.586317107,0 L8.95408234,3.04165529 L8.36139235,4.64579438 L0,1.60350537 L0.586317107,0 Z"></path></clipPath><clipPath id="i79"><path d="M1.58050708,0 L19.0043231,13.0656239 L17.4238159,15.1442892 L0,2.07929864 L1.58050708,0 Z"></path></clipPath><clipPath id="i80"><path d="M1.72708645,0 L13.1793898,23.9448801 L11.4523034,24.7602539 L0,0.814107048 L1.72708645,0 Z"></path></clipPath><clipPath id="i81"><path d="M32.6170263,1.47499293 C45.2037257,6.05236446 51.6787063,19.907387 47.0710183,32.4224594 C42.4697034,44.9368982 28.5319252,51.3711937 15.9388527,46.7938221 C3.35215313,42.2164506 -3.12282748,28.361428 1.48486049,15.8469892 C6.08617546,3.33191693 20.0239537,-3.10301216 32.6170263,1.47499293 Z"></path></clipPath><clipPath id="i82"><path d="M16.1237215,0 L18.513601,0.229977278 L18.3160377,2.66849672 C18.6920454,2.73755327 19.0616801,2.82181492 19.4313149,2.92191523 L20.2789254,0.628477864 L22.541345,1.45082087 L21.6937342,3.74425823 C22.0442501,3.90581251 22.3820197,4.08130482 22.7134163,4.26756742 L24.1409711,2.27696514 L26.116605,3.63465472 L24.6954231,5.62082218 C24.9885816,5.86410393 25.2689942,6.11942305 25.5430339,6.38361183 L27.4613105,4.83142356 L29.0163256,6.63322905 L27.0980488,8.18668442 C27.3147312,8.49268726 27.5250407,8.80692619 27.716231,9.12940122 L29.9977695,8.12016207 L31.0301975,10.2412749 L28.7486591,11.2511476 C28.8824924,11.6002315 28.9972065,11.9550174 29.0991747,12.3142381 L31.5846495,11.9163711 L32.0180145,14.2142433 L29.5389125,14.6114768 C29.5771508,14.9795671 29.5962696,15.3501916 29.6026427,15.7220833 L32.1136096,15.9628308 L31.9224192,18.2809766 L29.4114524,18.0383284 C29.3477222,18.3994498 29.2648731,18.7593039 29.1692778,19.1191582 L31.5464116,19.9845823 L30.749785,22.163348 L28.3662783,21.2979237 C28.2069531,21.6343367 28.0348816,21.9599796 27.8500643,22.2767527 L29.9276664,23.7053994 L28.5702147,25.5971685 L26.4926126,24.1716895 C26.2504383,24.4536176 25.9891446,24.7216076 25.7278511,24.9800944 L27.3657154,26.8737642 L25.5366607,28.3492933 L23.8987965,26.453723 C23.5865191,26.6621597 23.2678683,26.8585591 22.9428446,27.0397532 L24.0262569,29.2723701 L21.8594326,30.2321928 L20.7760206,27.9989421 C20.4191318,28.1218502 20.0558702,28.2276524 19.6862354,28.3195166 L20.1450924,30.7390297 L17.7870777,31.1159897 L17.3282208,28.700278 C16.9522132,28.7275205 16.5698324,28.7427256 16.1874517,28.7382906 L15.9898882,31.1717419 L13.6000085,30.942398 L13.7975719,28.5032451 C13.4215642,28.434822 13.0519294,28.3505603 12.6759217,28.2498265 L11.8346841,30.5432638 L9.57226466,29.7215543 L10.4198753,27.428117 C10.0693596,27.2659293 9.73158996,27.0917039 9.40019333,26.9048079 L7.96626552,28.8960436 L5.99063168,27.5377205 L7.41818647,25.5509195 C7.12502789,25.3082713 6.84461533,25.0523187 6.57057582,24.7887634 L4.65229906,26.3403183 L3.09728404,24.5397798 L5.01556077,22.985691 C4.79887834,22.6790546 4.58856893,22.3654491 4.39737856,22.0429741 L2.11584012,23.0528468 L1.0834121,20.9304669 L3.36495055,19.9212277 C3.23111729,19.5721437 3.11640307,19.2173578 3.00806185,18.8587707 L0.528960019,19.2560042 L0.0892221655,16.9581321 L2.57469701,16.5608986 C2.53645894,16.1928081 2.51096688,15.8228171 2.51096688,15.4509256 L0,15.2089109 L0.184817351,12.8920323 L2.70215725,13.134047 C2.76588738,12.7729256 2.84873655,12.4124378 2.94433174,12.0532171 L0.560825096,11.1877929 L1.36382465,9.00902743 L3.74095828,9.87445158 C3.90665661,9.53803853 4.07872795,9.21239576 4.2635453,8.89562265 L2.18594325,7.46634235 L3.54339491,5.5745733 L5.61462394,7.00068587 C5.86317142,6.71939133 6.11809192,6.45076774 6.38575844,6.19291443 L4.74789425,4.29797763 L6.57057582,2.82244847 L8.21481301,4.71865233 C8.52709062,4.51021562 8.84574123,4.3138163 9.17076489,4.13262207 L8.08735277,1.89937159 L10.254177,0.94081614 L11.3375891,3.17279953 C11.6944778,3.05115865 12.0577395,2.94535643 12.4273742,2.85222513 L11.9621443,0.433979152 L14.3265319,0.05575205 L14.7853889,2.4720974 C15.1613965,2.44485491 15.5437772,2.4296498 15.926158,2.43345107 L16.1237215,0 Z M19.6607432,5.78174291 C14.0461194,3.73855631 7.87704336,6.47294186 5.88229046,11.8878615 C3.89391057,17.3027811 6.83186931,23.3480793 12.4464933,25.3906325 C18.0674903,27.4331854 24.2365664,24.6994335 26.2313191,19.2851474 C28.2196991,13.8702277 25.2817404,7.82492951 19.6607432,5.78174291 Z"></path></clipPath><clipPath id="i83"><path d="M0.159646478,1.72896394 C0.669487621,0.349100251 2.23724857,-0.347800615 3.67117647,0.172340846 C5.10510414,0.693749396 5.85074675,2.23453384 5.34727872,3.61503108 C4.8374378,4.99552831 3.26330374,5.69179564 1.83574895,5.17102063 C0.401821056,4.65024562 -0.350194412,3.10946118 0.159646478,1.72896394 Z"></path></clipPath><clipPath id="i84"><path d="M0.159646538,1.72896395 C0.66948752,0.349100237 2.23724859,-0.347800675 3.67117632,0.172340902 C5.10510422,0.693749245 5.8507466,2.23453369 5.34727857,3.61503113 C4.83743766,4.99552835 3.26330359,5.69179553 1.83574881,5.17102069 C0.401821,4.65087911 -0.350194467,3.10946116 0.159646538,1.72896395 Z"></path></clipPath><clipPath id="i85"><path d="M0.159646538,1.72866888 C0.66948752,0.34880519 2.23724859,-0.348095676 3.67117637,0.17267933 C5.10510418,0.693454335 5.85074662,2.23423878 5.34727864,3.61473595 C4.83743766,4.99459966 3.26330357,5.69150057 1.83574881,5.17135923 C0.401821,4.64995066 -0.350194467,3.10916612 0.159646538,1.72866888 Z"></path></clipPath><clipPath id="i86"><path d="M0.159646605,1.72892572 C0.669487518,0.349062007 2.2372487,-0.348472358 3.67117637,0.172936169 C5.10510427,0.693077746 5.85074664,2.23449569 5.34727861,3.6143594 C4.8374377,4.99485662 3.26330364,5.69175753 1.83574885,5.17098245 C0.401820952,4.65020738 -0.350194538,3.10878944 0.159646605,1.72892572 Z"></path></clipPath><clipPath id="i87"><path d="M32.614408,1.47474588 C45.2011076,6.05211742 51.6760882,19.90714 47.0747733,32.4222122 C42.4670853,44.936651 28.5293071,51.3709465 15.9426076,46.793575 C3.349535,42.2162035 -3.11907261,28.3611809 1.48224238,15.8461086 C6.08993035,3.33166989 20.0277085,-3.10262566 32.614408,1.47474588 Z"></path></clipPath><clipPath id="i88"><path d="M16.1300944,0 L18.5199742,0.229977301 L18.3160378,2.66849674 C18.6920454,2.73755329 19.0680531,2.82118138 19.4376878,2.92191523 L20.2789255,0.628477864 L22.5413448,1.45082089 L21.7001074,3.74425826 C22.050623,3.90581253 22.3883927,4.0806713 22.7134163,4.26756744 L24.147344,2.27633162 L26.1229779,3.6340212 L24.6954231,5.62082218 C24.9885817,5.86347039 25.2753674,6.11942307 25.5430337,6.38361185 L27.4613105,4.83142359 L29.0163255,6.63259552 L27.0980489,8.1860509 C27.3211044,8.49268728 27.5250407,8.80692621 27.722604,9.12940124 L29.9977696,8.11952853 L31.0301976,10.2412749 L28.755032,11.250514 C28.8888653,11.599598 29.0035795,11.9550174 29.1055477,12.3136046 L31.5846496,11.9157376 L32.0243874,14.2136098 L29.5452855,14.6108432 C29.5771506,14.9789337 29.6026428,15.3495582 29.6090157,15.7214497 L32.1199827,15.9628309 L31.9287924,18.280343 L29.4114524,18.0376948 C29.3477222,18.3994496 29.271246,18.759304 29.175651,19.1185246 L31.5527845,19.9839489 L30.749785,22.1627143 L28.3726513,21.2979237 C28.213326,21.6337033 28.0412547,21.9599795 27.8500644,22.2767527 L29.9340394,23.7053995 L28.5702148,25.5971684 L26.4989858,24.1716894 C26.2504381,24.4529839 25.9955178,24.7209739 25.7278512,24.979461 L27.3657154,26.8737641 L25.5430337,28.3492934 L23.9051697,26.4530895 C23.592892,26.6615261 23.2742415,26.8579255 22.9428447,27.0391198 L24.0326298,29.2723702 L21.8658056,30.2315591 L20.7760204,27.9989422 C20.4191319,28.1205831 20.05587,28.2270188 19.6926084,28.3195167 L20.1514653,30.7383961 L17.7934507,31.1159898 L17.3345937,28.6990108 C16.952213,28.7268868 16.5762054,28.7420919 16.1874515,28.7382907 L15.9898883,31.1717417 L13.6000085,30.9417644 L13.7975719,28.5032449 C13.4279372,28.4341886 13.0519294,28.3505604 12.6822947,28.2491931 L11.8346841,30.5432639 L9.57863766,29.7215544 L10.4198753,27.4281171 C10.0693596,27.2659294 9.73158998,27.0910705 9.40019333,26.9041743 L7.97263854,28.8954102 L5.99700468,27.5370871 L7.42455947,25.5509196 C7.12502789,25.3082714 6.84461533,25.0523188 6.57694881,24.78813 L4.65867208,26.3403181 L3.09728404,24.5391464 L5.02193379,22.9856908 C4.79887836,22.678421 4.58856893,22.3648157 4.39737856,22.0429742 L2.11584012,23.0522132 L1.08978512,20.930467 L3.36495055,19.9205943 C3.23111729,19.5715103 3.11640307,19.2173579 3.01443487,18.8581373 L0.528960019,19.2553708 L0.0955951856,16.9574985 L2.57469701,16.560265 C2.53645894,16.1921747 2.5173399,15.8221837 2.51096688,15.450292 L0,15.2082773 L0.191190371,12.8913988 L2.70853027,13.1334134 C2.7722604,12.7729256 2.84873655,12.4118043 2.94433174,12.0525836 L0.567198093,11.1877929 L1.37019768,9.00839391 L3.7473313,9.8744516 C3.90665661,9.53740501 4.07872795,9.21176224 4.2635453,8.89562267 L2.18594325,7.46634237 L3.54339491,5.57393977 L5.62099696,7.00005235 C5.86317142,6.71812427 6.12446494,6.45013422 6.39213146,6.19228088 L4.75426727,4.29797765 L6.57694881,2.82244849 L8.21481301,4.71865235 C8.52709062,4.51021565 8.84574123,4.31318276 9.17713788,4.13198854 L8.08735277,1.89937161 L10.254177,0.940182619 L11.3375891,3.17216601 C11.6944778,3.05052513 12.0577395,2.94472291 12.4273742,2.85222516 L11.9685173,0.433345631 L14.3265319,0.0551185288 L14.7853889,2.47209742 C15.1677697,2.44422139 15.5437773,2.42964982 15.9261581,2.43281754 L16.1300944,0 Z M19.6671164,5.78174294 C14.0461194,3.73855634 7.87704336,6.47167479 5.88866348,11.8865944 C3.8939106,17.301514 6.83186931,23.3474459 12.4528663,25.3906323 C18.0674901,27.4325518 24.2365662,24.6994334 26.2313192,19.2845138 C28.226072,13.8695941 25.2881134,7.82429599 19.6671164,5.78174294 Z"></path></clipPath><clipPath id="i89"><path d="M0.157129761,1.72903841 C0.666970904,0.348541155 2.24110497,-0.347726144 3.67503264,0.172415317 C5.10258742,0.693190323 5.85460291,2.23460831 5.344762,3.61510555 C4.84129397,4.9943357 3.26715991,5.69187011 1.83323201,5.1710951 C0.399304339,4.64968655 -0.346338178,3.10953565 0.157129761,1.72903841 Z"></path></clipPath><clipPath id="i90"><path d="M0.160389838,1.72929511 C0.663857823,0.348797895 2.23799189,-0.348102788 3.67191958,0.172672057 C5.09947436,0.693447131 5.85148985,2.23486508 5.34164894,3.61472879 C4.83818091,4.995226 3.26404685,5.69212691 1.83011911,5.17071834 C0.396191304,4.650577 -0.349451144,3.10979255 0.160389838,1.72929511 Z"></path></clipPath><clipPath id="i91"><path d="M0.160389838,1.72900034 C0.663857823,0.3485031 2.23799189,-0.348397766 3.67191969,0.173010783 C5.09947448,0.693152245 5.85148995,2.23393669 5.34164894,3.61443397 C4.83818098,4.99493119 3.26404689,5.69119837 1.83011911,5.17105702 C0.396191304,4.65028195 -0.349451144,3.10886403 0.160389838,1.72900034 Z"></path></clipPath><clipPath id="i92"><path d="M0.16038981,1.72874351 C0.663857841,0.348246067 2.2379919,-0.34802114 3.67191957,0.172753958 C5.09947436,0.692895304 5.85148985,2.23431325 5.34164894,3.61481046 C4.83818091,4.99467418 3.26404684,5.69157509 1.83011917,5.17143374 C0.396191275,4.65065867 -0.349451103,3.10924072 0.16038981,1.72874351 Z"></path></clipPath><clipPath id="i93"><path d="M3.54339493,0 L8.00450362,16.0977762 L14.9765793,10.9381757 L18.2013234,33.1965554 L17.3792048,33.4455393 L12.6695487,15.3223156 L6.73627415,20.3938533 L0,1.24491835 L3.54339493,0 Z"></path></clipPath><clipPath id="i94"><path d="M3.15464101,0 L6.28379026,0.56955807 L2.74676828,14.2497219 L10.0502406,13.3728939 L3.00806173,31.0602378 L2.30065734,30.8999505 L6.50684573,15.6308527 L0,16.8732368 L3.15464101,0 Z"></path></clipPath><clipPath id="i95"><path d="M2.21780833,0 L11.3822002,10.5092649 L14.7598968,4.14339232 L25.2180101,19.7286296 L24.6890501,20.2044229 L14.6133175,8.26080941 L11.9748903,14.1908022 L0,2.20157316 L2.21780833,0 Z"></path></clipPath></defs><g clip-path="url(#i0)"><polygon points="0,0 512,0 512,512 0,512 0,0" stroke="none" fill="url(#i1)"></polygon></g><g transform="translate(50.00000000000034 41.00000000000006)"><g transform="translate(120.54878745217341 194.2040556474887) rotate(-2.0)"><g transform="translate(115.07748499768799 43.56801801032804)"><g transform=""><g clip-path="url(#i2)"><polygon points="0,-5.68434189e-14 3.588006,-5.68434189e-14 3.588006,3.56369756 0,3.56369756 0,-5.68434189e-14" stroke="none" fill="#FFFFFE"></polygon></g></g><g transform="translate(6.717155092300678 -3.930189507173054e-14)"><g clip-path="url(#i3)"><polygon points="2.27373675e-13,0 3.58163298,0 3.58163298,3.56369756 2.27373675e-13,3.56369756 2.27373675e-13,0" stroke="none" fill="#F3E92A"></polygon></g></g><g transform="translate(13.427937187543591 -3.1086244689504383e-15)"><g clip-path="url(#i4)"><polygon points="2.27373675e-13,-5.68434189e-14 3.588006,-5.68434189e-14 3.588006,3.56369756 2.27373675e-13,3.56369756 2.27373675e-13,-5.68434189e-14" stroke="none" fill="#FFFFFE"></polygon></g></g><g transform="translate(20.14509227984413 -3.352873534367973e-14)"><g clip-path="url(#i5)"><polygon points="0,0 3.58163307,0 3.58163307,3.56369756 0,3.56369756 0,0" stroke="none" fill="#F3E92A"></polygon></g></g><g transform="translate(26.85587437508704 2.6645352591003757e-15)"><g clip-path="url(#i6)"><polygon points="0,0 3.58800596,0 3.58800596,3.56369756 0,3.56369756 0,0" stroke="none" fill="#F3E92A"></polygon></g></g><g transform="translate(33.57302958223487 -3.064215547965432e-14)"><g clip-path="url(#i7)"><polygon points="2.27373675e-13,0 3.58163285,0 3.58163285,3.56369756 2.27373675e-13,3.56369756 2.27373675e-13,0" stroke="none" fill="#FFFFFE"></polygon></g></g><g transform="translate(40.290184559688115 -5.861977570020827e-14)"><g clip-path="url(#i5)"><polygon points="0,-5.68434189e-14 3.58163307,-5.68434189e-14 3.58163307,3.56369756 0,3.56369756 0,-5.68434189e-14" stroke="none" fill="#FFFFFE"></polygon></g></g><g transform="translate(47.000966654931034 -7.926992395823618e-14)"><g clip-path="url(#i6)"><polygon points="0,-5.68434189e-14 3.58800596,-5.68434189e-14 3.58800596,3.56369756 0,3.56369756 0,-5.68434189e-14" stroke="none" fill="#F3E92A"></polygon></g></g></g><g transform="translate(15.046681541079295 2.1316282072803006e-14)"><g transform="translate(134.41957804039828 19.878458790187764)"><g clip-path="url(#i8)"><polygon points="2.27373675e-13,0 8.49522564,0 8.49522564,27.0308835 2.27373675e-13,27.0308835 2.27373675e-13,0" stroke="none" fill="#0A0A09"></polygon></g></g><g transform="translate(118.96502307976246 19.878458790187743)"><g clip-path="url(#i9)"><polygon points="2.27373675e-13,5.68434189e-14 8.49522541,5.68434189e-14 8.49522541,27.0308835 2.27373675e-13,27.0308835 2.27373675e-13,5.68434189e-14" stroke="none" fill="#0A0A09"></polygon></g></g><g transform="translate(21.574255711844643 7.058969232313343)"><g clip-path="url(#i10)"><polygon points="-5.15212872e-16,-5.68061223e-14 8.49823796,-5.68061223e-14 8.49823796,27.0660438 -5.15212872e-16,27.0660438 -5.15212872e-16,-5.68061223e-14" stroke="none" fill="#0A0A09"></polygon></g></g><g transform=""><g clip-path="url(#i11)"><polygon points="2.27373675e-13,0 15.106017,0 15.106017,25.4289575 2.27373675e-13,25.4289575 2.27373675e-13,0" stroke="none" fill="#0A0A09"></polygon></g></g></g><g transform="translate(-4.973799150320701e-14 7.999465864108018)"><g clip-path="url(#i12)"><polygon points="2.27373675e-13,5.68434189e-14 53.6926299,5.68434189e-14 53.6926299,37.6073044 2.27373675e-13,37.6073044 2.27373675e-13,5.68434189e-14" stroke="none" fill="#126971"></polygon></g></g><g transform="translate(81.00736095586849 38.370405303415055)"><g clip-path="url(#i13)"><polygon points="2.27373675e-13,0 92.0709107,0 92.0709107,26.1128038 2.27373675e-13,26.1128038 2.27373675e-13,0" stroke="none" fill="#126971"></polygon></g></g></g><g transform="translate(152.72415608357142 161.66220286486168) rotate(-2.0)"><g transform="translate(47.19818650132794 -4.618527782440651e-14)"><g clip-path="url(#i14)"><polygon points="2.30926389e-13,5.86197757e-14 28.6799086,5.86197757e-14 28.6799086,28.5101602 2.30926389e-13,28.5101602 2.30926389e-13,5.86197757e-14" stroke="none" fill="#006C73"></polygon></g></g><g transform="translate(56.78047127041212 16.42400473925391)"><g clip-path="url(#i15)"><polygon points="0,0 15.327095,0 15.327095,6.41220743 0,6.41220743 0,0" stroke="none" fill="#FFFFFE"></polygon></g></g><g transform="translate(-1.4210854715202004e-14 7.613252886031617)"><g clip-path="url(#i16)"><polygon points="2.27332042e-13,5.66213743e-14 128.100902,5.66213743e-14 128.100902,79.4530574 2.27332042e-13,79.4530574 2.27332042e-13,5.66213743e-14" stroke="none" fill="#006C73"></polygon></g></g><g transform="translate(52.03895020443708 32.635819214405835)"><g clip-path="url(#i17)"><polygon points="2.27373675e-13,0 6.19456807,0 6.19456807,5.9517923 2.27373675e-13,5.9517923 2.27373675e-13,0" stroke="none" fill="#FFFFFE"></polygon></g></g><g transform="translate(29.242684717134885 38.02666427920655)"><g clip-path="url(#i18)"><polygon points="2.27373675e-13,0 26.5563427,0 26.5563427,28.0217498 2.27373675e-13,28.0217498 2.27373675e-13,0" stroke="none" fill="#FFFFFE"></polygon></g></g></g><g transform="translate(8.526512829121202e-14 57.867107419258105) rotate(-4.0)"><g transform="translate(134.19054041659268 196.33428734067604)"><g clip-path="url(#i19)"><polygon points="-2.2470914e-13,1.42108547e-14 14.5372936,1.42108547e-14 14.5372936,14.4531684 -2.2470914e-13,14.4531684 -2.2470914e-13,1.42108547e-14" stroke="none" fill="#FFFFFE"></polygon></g></g><g transform="translate(205.27250308166344 222.1791789771793)"><g clip-path="url(#i20)"><polygon points="-2.11386464e-13,1.42108547e-14 14.5398453,1.42108547e-14 14.5398453,14.4528437 -2.11386464e-13,14.4528437 -2.11386464e-13,1.42108547e-14" stroke="none" fill="#FFFFFE"></polygon></g></g><g transform="translate(230.11216779552495 -7.105427357601002e-15)"><g clip-path="url(#i21)"><polygon points="-2.39502862e-13,-5.66213743e-14 32.9112898,-5.66213743e-14 32.9112898,65.031077 -2.39502862e-13,65.031077 -2.39502862e-13,-5.66213743e-14" stroke="none" fill="#126971"></polygon></g></g><g transform="translate(245.211797156351 2.323747776595543)"><g clip-path="url(#i22)"><polygon points="0,-5.68434189e-14 10.2350579,-5.68434189e-14 10.2350579,6.00430782 0,6.00430782 0,-5.68434189e-14" stroke="none" fill="#FFFFFE"></polygon></g></g><g transform="translate(133.83371424068048 247.79998385512178)"><g clip-path="url(#i23)"><polygon points="7.54951657e-15,-4.4408921e-15 35.1091864,-4.4408921e-15 35.1091864,75.6602793 7.54951657e-15,75.6602793 7.54951657e-15,-4.4408921e-15" stroke="none" fill="#126971"></polygon></g></g><g transform="translate(1.3500311979441904e-13 189.0930741862693)"><g clip-path="url(#i24)"><polygon points="-2.2759572e-13,4.39648318e-14 69.909908,4.39648318e-14 69.909908,86.8115688 -2.2759572e-13,86.8115688 -2.2759572e-13,4.39648318e-14" stroke="none" fill="#126971"></polygon></g></g><g transform="translate(54.27092535044834 199.25371563613987)"><g clip-path="url(#i25)"><polygon points="-2.27373675e-13,0 41.8706917,0 41.8706917,13.8651593 -2.27373675e-13,13.8651593 -2.27373675e-13,0" stroke="none" fill="#126971"></polygon></g></g><g transform="translate(77.7977666813365 48.0524410272202)"><g clip-path="url(#i26)"><polygon points="-2.25597319e-13,1.26217745e-29 235.771615,1.26217745e-29 235.771615,234.380968 -2.25597319e-13,234.380968 -2.25597319e-13,1.26217745e-29" stroke="none" fill="#126971"></polygon></g></g><g transform="translate(264.3633443102826 267.3966992348205)"><g clip-path="url(#i27)"><polygon points="-3.55271368e-15,7.99360578e-15 20.9340577,7.99360578e-15 20.9340577,104.642462 -3.55271368e-15,104.642462 -3.55271368e-15,7.99360578e-15" stroke="none" fill="#126971"></polygon></g></g><g transform="translate(248.23897707536622 244.84860373877592)"><g clip-path="url(#i28)"><polygon points="0,0 34.3760295,0 34.3760295,36.0278728 0,36.0278728 0,0" stroke="none" fill="#126971"></polygon></g></g><g transform="translate(55.708344278905365 197.37634357420833)"><g clip-path="url(#i29)"><polygon points="-3.99680289e-15,5.32907052e-15 6.69218779,5.32907052e-15 6.69218779,6.65351753 -3.99680289e-15,6.65351753 -3.99680289e-15,5.32907052e-15" stroke="none" fill="#FFFFFE"></polygon></g></g><g transform="translate(57.72714540347632 199.3829943322129)"><g clip-path="url(#i30)"><polygon points="1.11022302e-16,-6.1284311e-14 2.65409473,-6.1284311e-14 2.65409473,2.64059583 1.11022302e-16,2.64059583 1.11022302e-16,-6.1284311e-14" stroke="none" fill="#0A0A09"></polygon></g></g><g transform="translate(273.70998114914755 276.64128428481575)"><g clip-path="url(#i31)"><polygon points="1.10467191e-14,-6.21724894e-15 6.69218716,-6.21724894e-15 6.69218716,6.65400942 1.10467191e-14,6.65400942 1.10467191e-14,-6.21724894e-15" stroke="none" fill="#FFFFFE"></polygon></g></g><g transform="translate(275.7262305742005 278.6478650413667)"><g clip-path="url(#i32)"><polygon points="7.5078832e-15,-9.81853487e-14 2.65664631,-9.81853487e-14 2.65664631,2.640849 7.5078832e-15,2.640849 7.5078832e-15,-9.81853487e-14" stroke="none" fill="#126971"></polygon></g></g></g><g transform="translate(148.10030042417105 262.4862601183981) rotate(-4.0)"><g clip-path="url(#i33)"><polygon points="-1.77635684e-15,0 64.4837333,0 64.4837333,64.1032376 -1.77635684e-15,64.1032376 -1.77635684e-15,0" stroke="none" fill="#126971"></polygon></g><g transform="translate(3.793648121017341 3.768180782598563)"><g clip-path="url(#i34)"><polygon points="0,5.68434189e-14 56.9027436,5.68434189e-14 56.9027436,56.5664877 0,56.5664877 0,5.68434189e-14" stroke="none" fill="#FFFFFE"></polygon></g></g><g transform="translate(38.51928382375147 4.475529041152312)"><g clip-path="url(#i35)"><polygon points="0,0 4.55033092,0 4.55033092,8.67641565 0,8.67641565 0,0" stroke="none" fill="#0A0A09"></polygon></g></g><g transform="translate(21.41411853660354 50.952480707401115)"><g clip-path="url(#i36)"><polygon points="2.27373675e-13,0 4.55670388,0 4.55670388,8.67641578 2.27373675e-13,8.67641578 2.27373675e-13,0" stroke="none" fill="#0A0A09"></polygon></g></g><g transform="translate(26.42967934889991 3.5264767809040007)"><g clip-path="url(#i37)"><polygon points="0,5.68434189e-14 2.47272883,5.68434189e-14 2.47272883,4.95559864 0,4.95559864 0,5.68434189e-14" stroke="none" fill="#0A0A09"></polygon></g></g><g transform="translate(35.58769828636488 55.622350088556175)"><g clip-path="url(#i38)"><polygon points="2.27373675e-13,0 2.46635572,0 2.46635572,4.95433146 2.27373675e-13,4.95433146 2.27373675e-13,0" stroke="none" fill="#0A0A09"></polygon></g></g><g transform="translate(13.008115135444687 9.418456751659226)"><g clip-path="url(#i39)"><polygon points="0,5.68434189e-14 4.34002147,5.68434189e-14 4.34002147,4.70154659 0,4.70154659 0,5.68434189e-14" stroke="none" fill="#0A0A09"></polygon></g></g><g transform="translate(47.13559674799041 49.98378860005252)"><g clip-path="url(#i40)"><polygon points="2.27373675e-13,0 4.34639433,0 4.34639433,4.70154659 2.27373675e-13,4.70154659 2.27373675e-13,0" stroke="none" fill="#0A0A09"></polygon></g></g><g transform="translate(3.5505646931223267 35.3754795836933)"><g clip-path="url(#i41)"><polygon points="0,0 4.98369574,0 4.98369574,2.45562507 0,2.45562507 0,0" stroke="none" fill="#0A0A09"></polygon></g></g><g transform="translate(55.955845807770615 26.273954311843973)"><g clip-path="url(#i42)"><polygon points="2.27373675e-13,5.68434189e-14 4.98369587,5.68434189e-14 4.98369587,2.45562507 2.27373675e-13,2.45562507 2.27373675e-13,5.68434189e-14" stroke="none" fill="#0A0A09"></polygon></g></g><g transform="translate(9.477466266770575 46.85850488372506)"><g clip-path="url(#i43)"><polygon points="2.27373675e-13,0 4.72877521,0 4.72877521,4.31698421 2.27373675e-13,4.31698421 2.27373675e-13,0" stroke="none" fill="#0A0A09"></polygon></g></g><g transform="translate(50.28386487442326 12.927669330206665)"><g clip-path="url(#i44)"><polygon points="2.27373675e-13,0 4.72877507,0 4.72877507,4.31888468 2.27373675e-13,4.31888468 2.27373675e-13,0" stroke="none" fill="#0A0A09"></polygon></g></g><g transform="translate(4.5001435516678185 21.289212523627953)"><g clip-path="url(#i45)"><polygon points="0,5.68434189e-14 8.73102703,5.68434189e-14 8.73102703,4.52668786 0,4.52668786 0,5.68434189e-14" stroke="none" fill="#0A0A09"></polygon></g></g><g transform="translate(51.258935836046945 38.2891585739056)"><g clip-path="url(#i46)"><polygon points="0,0 8.72465399,0 8.72465399,4.52605425 0,4.52605425 0,0" stroke="none" fill="#0A0A09"></polygon></g></g><g transform="translate(28.966138149929833 27.369989215998903)"><g clip-path="url(#i47)"><polygon points="2.27373675e-13,5.68434189e-14 12.274422,5.68434189e-14 12.274422,19.8388668 2.27373675e-13,19.8388668 2.27373675e-13,5.68434189e-14" stroke="none" fill="#0A0A09"></polygon></g></g><g transform="translate(27.258171033654257 26.792828662006258)"><g clip-path="url(#i48)"><polygon points="2.27373675e-13,0 6.85736137,0 6.85736137,25.7029707 2.27373675e-13,25.7029707 2.27373675e-13,0" stroke="none" fill="#0A0A09"></polygon></g></g></g><g transform="translate(74.69471386039146 239.96850171219717) rotate(-4.0)"><g transform=""><g clip-path="url(#i49)"><polygon points="2.30926389e-13,0 66.1975113,0 66.1975113,65.8053524 2.30926389e-13,65.8053524 2.30926389e-13,0" stroke="none" fill="#126971"></polygon></g></g><g transform="translate(3.8995136020177874 3.8755585261175156)"><g clip-path="url(#i50)"><polygon points="0,5.68434189e-14 58.4012261,5.68434189e-14 58.4012261,58.0542434 0,58.0542434 0,5.68434189e-14" stroke="none" fill="#FFFFFE"></polygon></g></g><g transform="translate(39.53686922565582 4.601152024781746)"><g clip-path="url(#i51)"><polygon points="0,0 4.67141798,0 4.67141798,8.90512586 0,8.90512586 0,0" stroke="none" fill="#0A0A09"></polygon></g></g><g transform="translate(21.98559297302534 52.30084798561293)"><g clip-path="url(#i52)"><polygon points="2.27373675e-13,1.13686838e-13 4.67779119,1.13686838e-13 4.67779119,8.90512588 2.27373675e-13,8.90512588 2.27373675e-13,1.13686838e-13" stroke="none" fill="#0A0A09"></polygon></g></g><g transform="translate(27.134987091045225 3.6267579277930944)"><g clip-path="url(#i53)"><polygon points="0,0 2.5364588,0 2.5364588,5.08610916 0,5.08610916 0,0" stroke="none" fill="#0A0A09"></polygon></g></g><g transform="translate(36.52880726418732 57.09425871464367)"><g clip-path="url(#i54)"><polygon points="0,5.68434189e-14 2.53645903,5.68434189e-14 2.53645903,5.08484221 0,5.08484221 0,5.68434189e-14" stroke="none" fill="#0A0A09"></polygon></g></g><g transform="translate(13.356534146549093 9.67459025307404)"><g clip-path="url(#i55)"><polygon points="0,0 4.45473569,0 4.45473569,4.82445458 0,4.82445458 0,0" stroke="none" fill="#0A0A09"></polygon></g></g><g transform="translate(48.388983385572004 51.306813880737636)"><g clip-path="url(#i56)"><polygon points="2.27373675e-13,5.68434189e-14 4.45473585,5.68434189e-14 4.45473585,4.82508817 2.27373675e-13,4.82508817 2.27373675e-13,5.68434189e-14" stroke="none" fill="#0A0A09"></polygon></g></g><g transform="translate(3.6504362217698674 36.313942251237165)"><g clip-path="url(#i57)"><polygon points="0,0 5.11752897,0 5.11752897,2.52024694 0,2.52024694 0,0" stroke="none" fill="#0A0A09"></polygon></g></g><g transform="translate(57.432288146303506 26.972936722108244)"><g clip-path="url(#i58)"><polygon points="2.27373675e-13,0 5.11752893,0 5.11752893,2.52024671 2.27373675e-13,2.52024671 2.27373675e-13,0" stroke="none" fill="#0A0A09"></polygon></g></g><g transform="translate(9.730290069345024 48.09916941895624)"><g clip-path="url(#i59)"><polygon points="2.27373675e-13,5.68434189e-14 4.85623547,5.68434189e-14 4.85623547,4.43038866 2.27373675e-13,4.43038866 2.27373675e-13,5.68434189e-14" stroke="none" fill="#0A0A09"></polygon></g></g><g transform="translate(51.6137277063921 13.276934149976753)"><g clip-path="url(#i60)"><polygon points="0,5.68434189e-14 4.85623547,5.68434189e-14 4.85623547,4.43102235 0,4.43102235 0,5.68434189e-14" stroke="none" fill="#0A0A09"></polygon></g></g><g transform="translate(4.625507114484945 21.857050780033187)"><g clip-path="url(#i61)"><polygon points="2.27373675e-13,5.68434189e-14 8.96045548,5.68434189e-14 8.96045548,4.64642813 2.27373675e-13,4.64642813 2.27373675e-13,5.68434189e-14" stroke="none" fill="#0A0A09"></polygon></g></g><g transform="translate(52.61429065624642 39.30428050259188)"><g clip-path="url(#i62)"><polygon points="0,5.68434189e-14 8.95408257,5.68434189e-14 8.95408257,4.64579461 0,4.64579461 0,5.68434189e-14" stroke="none" fill="#0A0A09"></polygon></g></g><g transform="translate(28.180161135151124 25.346623350693953)"><g clip-path="url(#i63)"><polygon points="2.27373675e-13,0 21.2348774,0 21.2348774,10.4845567 2.27373675e-13,10.4845567 2.27373675e-13,0" stroke="none" fill="#0A0A09"></polygon></g></g><g transform="translate(23.553354016214566 13.136920423315464)"><g clip-path="url(#i64)"><polygon points="2.27373675e-13,0 12.6376836,0 12.6376836,24.9750261 2.27373675e-13,24.9750261 2.27373675e-13,0" stroke="none" fill="#0A0A09"></polygon></g></g></g><g transform="translate(220.4339963520148 281.88573328697646) rotate(-4.0)"><g clip-path="url(#i65)"><polygon points="-4.4408921e-16,-5.68434189e-14 66.1945118,-5.68434189e-14 66.1945118,65.8065798 -4.4408921e-16,65.8065798 -4.4408921e-16,-5.68434189e-14" stroke="none" fill="#126971"></polygon></g><g transform="translate(3.899512950735243 3.876269082990458)"><g clip-path="url(#i66)"><polygon points="0,3.55271368e-15 58.4012926,3.55271368e-15 58.4012926,58.0546166 0,58.0546166 0,3.55271368e-15" stroke="none" fill="#FFFFFE"></polygon></g></g><g transform="translate(39.53693491918385 4.602235885872027)"><g clip-path="url(#i67)"><polygon points="0,0 4.67141821,0 4.67141821,8.90512586 0,8.90512586 0,0" stroke="none" fill="#0A0A09"></polygon></g></g><g transform="translate(21.985658804370267 52.30193168591679)"><g clip-path="url(#i68)"><polygon points="-2.27373675e-13,0 4.67779105,0 4.67779105,8.90512588 -2.27373675e-13,8.90512588 -2.27373675e-13,0" stroke="none" fill="#0A0A09"></polygon></g></g><g transform="translate(27.13505278457314 3.627841765913825)"><g clip-path="url(#i69)"><polygon points="-2.27373675e-13,-1.13686838e-13 2.53645903,-1.13686838e-13 2.53645903,5.08610918 -2.27373675e-13,5.08610918 -2.27373675e-13,-1.13686838e-13" stroke="none" fill="#0A0A09"></polygon></g></g><g transform="translate(36.52887318741004 57.095342644642315)"><g clip-path="url(#i70)"><polygon points="0,0 2.5364588,0 2.5364588,5.08420848 0,5.08420848 0,0" stroke="none" fill="#0A0A09"></polygon></g></g><g transform="translate(13.356599954924356 10.942766594330456)"><g clip-path="url(#i71)"><polygon points="0,0 4.45473569,0 4.45473569,4.82445456 0,4.82445456 0,0" stroke="none" fill="#0A0A09"></polygon></g></g><g transform="translate(48.38267619688965 51.30789781073618)"><g clip-path="url(#i72)"><polygon points="0,-1.13686838e-13 4.46110874,-1.13686838e-13 4.46110874,4.82445444 0,4.82445444 0,-1.13686838e-13" stroke="none" fill="#0A0A09"></polygon></g></g><g transform="translate(3.6505020301451694 36.31502618123591)"><g clip-path="url(#i73)"><polygon points="0,0 5.11115597,0 5.11115597,2.52024694 0,2.52024694 0,0" stroke="none" fill="#0A0A09"></polygon></g></g><g transform="translate(57.43235383983149 26.9740204224121)"><g clip-path="url(#i74)"><polygon points="2.27373675e-13,0 5.11752916,0 5.11752916,2.52024694 2.27373675e-13,2.52024694 2.27373675e-13,0" stroke="none" fill="#0A0A09"></polygon></g></g><g transform="translate(9.730355900689922 48.10025311926003)"><g clip-path="url(#i75)"><polygon points="-2.27373675e-13,-1.13686838e-13 4.85623547,-1.13686838e-13 4.85623547,4.43038889 -2.27373675e-13,4.43038889 -2.27373675e-13,-1.13686838e-13" stroke="none" fill="#0A0A09"></polygon></g></g><g transform="translate(51.613793629614804 13.277384466871126)"><g clip-path="url(#i76)"><polygon points="0,0 4.85623547,0 4.85623547,4.43165589 0,4.43165589 0,0" stroke="none" fill="#0A0A09"></polygon></g></g><g transform="translate(4.625572945829907 21.8575010969276)"><g clip-path="url(#i77)"><polygon points="2.27373675e-13,-1.13686838e-13 8.96045548,-1.13686838e-13 8.96045548,4.64642802 2.27373675e-13,4.64642802 2.27373675e-13,-1.13686838e-13" stroke="none" fill="#0A0A09"></polygon></g></g><g transform="translate(52.6143565794693 39.30536443259057)"><g clip-path="url(#i78)"><polygon points="0,0 8.95408234,0 8.95408234,4.64579438 0,4.64579438 0,0" stroke="none" fill="#0A0A09"></polygon></g></g><g transform="translate(18.658946300932186 21.68010814786677)"><g clip-path="url(#i79)"><polygon points="-2.27373675e-13,0 19.0043231,0 19.0043231,15.1442892 -2.27373675e-13,15.1442892 -2.27373675e-13,0" stroke="none" fill="#0A0A09"></polygon></g></g><g transform="translate(29.900940168764706 27.726673315847687)"><g clip-path="url(#i80)"><polygon points="0,0 13.1793898,0 13.1793898,24.7602539 0,24.7602539 0,0" stroke="none" fill="#0A0A09"></polygon></g></g></g><g transform="translate(109.19200241572283 297.0493243629296) rotate(-4.0)"><g clip-path="url(#i81)"><polygon points="0,-1.77635684e-15 48.5558788,-1.77635684e-15 48.5558788,48.268568 0,48.268568 0,-1.77635684e-15" stroke="none" fill="#126971"></polygon></g><g transform="translate(8.221134642159768 8.547903083052706)"><g clip-path="url(#i82)"><polygon points="-2.27373675e-13,-1.13686838e-13 32.1136096,-1.13686838e-13 32.1136096,31.1717419 -2.27373675e-13,31.1717419 -2.27373675e-13,-1.13686838e-13" stroke="none" fill="#FFFFFE"></polygon></g></g><g transform="translate(23.292987745132088 16.656011497426764)"><g clip-path="url(#i83)"><polygon points="-1.80411242e-15,-5.55111512e-16 5.50440851,-5.55111512e-16 5.50440851,5.34377453 -1.80411242e-15,5.34377453 -1.80411242e-15,-5.55111512e-16" stroke="none" fill="#E5E5E0"></polygon></g></g><g transform="translate(19.755965911663345 26.268174989731982)"><g clip-path="url(#i84)"><polygon points="-2.27401431e-13,-5.55111512e-17 5.50440839,-5.55111512e-17 5.50440839,5.34377451 -2.27401431e-13,5.34377451 -2.27401431e-13,-5.55111512e-17" stroke="none" fill="#FFFFFE"></polygon></g></g><g transform="translate(16.53759463383995 19.64917896339462)"><g clip-path="url(#i85)"><polygon points="1.66533454e-16,1.44328993e-15 5.50440843,1.44328993e-15 5.50440843,5.34370001 1.66533454e-16,5.34370001 1.66533454e-16,1.44328993e-15" stroke="none" fill="#FFFFFE"></polygon></g></g><g transform="translate(26.511359057193836 23.275340746045813)"><g clip-path="url(#i86)"><polygon points="6.9388939e-16,-1.15768506e-13 5.50440844,-1.15768506e-13 5.50440844,5.3436546 6.9388939e-16,5.3436546 6.9388939e-16,-1.15768506e-13" stroke="none" fill="#FFFFFE"></polygon></g></g></g><g transform="translate(182.46867471496708 318.1259153827196) rotate(-4.0)"><g transform=""><g clip-path="url(#i87)"><polygon points="-1.77635684e-15,1.17239551e-13 48.5563026,1.17239551e-13 48.5563026,48.2683209 -1.77635684e-15,48.2683209 -1.77635684e-15,1.17239551e-13" stroke="none" fill="#126971"></polygon></g></g><g transform="translate(8.218516515410965 8.548289567140923)"><g clip-path="url(#i88)"><polygon points="2.27373675e-13,0 32.1199827,0 32.1199827,31.1717417 2.27373675e-13,31.1717417 2.27373675e-13,0" stroke="none" fill="#FFFFFE"></polygon></g></g><g transform="translate(23.292886404213007 16.656323533757256)"><g clip-path="url(#i89)"><polygon points="-1.41553436e-15,1.13492549e-13 5.5044696,1.13492549e-13 5.5044696,5.34369991 -1.41553436e-15,5.34369991 -1.41553436e-15,1.13492549e-13" stroke="none" fill="#E5E5E0"></polygon></g></g><g transform="translate(19.758977481659482 26.26823018069306)"><g clip-path="url(#i90)"><polygon points="4.71844785e-16,1.1235457e-13 5.50135654,1.1235457e-13 5.50135654,5.34372913 4.71844785e-16,5.34372913 4.71844785e-16,1.1235457e-13" stroke="none" fill="#FFFFFE"></polygon></g></g><g transform="translate(16.540606203835907 19.649234016737758)"><g clip-path="url(#i91)"><polygon points="2.27040609e-13,1.1499135e-13 5.50135659,1.1499135e-13 5.50135659,5.34347229 2.27040609e-13,5.34347229 2.27040609e-13,1.1499135e-13" stroke="none" fill="#FFFFFE"></polygon></g></g><g transform="translate(26.514370676367562 23.27527603549674)"><g clip-path="url(#i92)"><polygon points="2.26874075e-13,1.1260437e-13 5.50135653,1.1260437e-13 5.50135653,5.34377452 2.26874075e-13,5.34377452 2.26874075e-13,1.1260437e-13" stroke="none" fill="#FFFFFE"></polygon></g></g></g><g transform="translate(209.62483848861862 3.1505887450269405) rotate(-4.0)"><g transform="translate(13.166643665032298 1.4210854715202004e-14)"><g clip-path="url(#i93)"><polygon points="0,0 18.2013234,0 18.2013234,33.4455393 0,33.4455393 0,0" stroke="none" fill="#126971"></polygon></g></g><g transform="translate(35.115298545315184 2.5734647923498635)"><g clip-path="url(#i94)"><polygon points="0,0 10.0502406,0 10.0502406,31.0602378 0,31.0602378 0,0" stroke="none" fill="#126971"></polygon></g></g><g transform="translate(1.474376176702208e-13 18.95190203414255)"><g clip-path="url(#i95)"><polygon points="0,-5.68434189e-14 25.2180101,-5.68434189e-14 25.2180101,20.2044229 0,20.2044229 0,-5.68434189e-14" stroke="none" fill="#126971"></polygon></g></g></g></g></svg>