<?xml version="1.0" encoding="UTF-8"?><svg version="1.1" width="512px" height="512px" viewBox="0 0 512.0 512.0" xmlns="http://www.w3.org/2000/svg" xmlns:xlink="http://www.w3.org/1999/xlink"><defs><clipPath id="i0"><path d="M365.858544,0 C416.675112,0 435.102427,5.29105984 453.680205,15.2265641 C472.257983,25.1620684 486.837932,39.7420171 496.773436,58.3197949 C506.70894,76.8975727 512,95.3248882 512,146.141456 L512,365.858544 C512,416.675112 506.70894,435.102427 496.773436,453.680205 C486.837932,472.257983 472.257983,486.837932 453.680205,496.773436 C435.102427,506.70894 416.675112,512 365.858544,512 L146.141456,512 C95.3248882,512 76.8975727,506.70894 58.3197949,496.773436 C39.7420171,486.837932 25.1620684,472.257983 15.2265641,453.680205 C5.29105984,435.102427 0,416.675112 0,365.858544 L0,146.141456 C0,95.3248882 5.29105984,76.8975727 15.2265641,58.3197949 C25.1620684,39.7420171 39.7420171,25.1620684 58.3197949,15.2265641 C76.8975727,5.29105984 95.3248882,0 146.141456,0 L365.858544,0 Z"></path></clipPath><linearGradient id="i1" x1="256px" y1="0.540540539px" x2="256px" y2="511.846316px" gradientUnits="userSpaceOnUse"><stop stop-color="#1D436D" offset="0%"></stop><stop stop-color="#1B4066" offset="99.9699519%"></stop></linearGradient><clipPath id="i2"><path d="M332.181818,0 L348,15.8095238 L308.454545,61.6571429 L284.727273,134.380952 L205.636364,189.714286 L112.941818,219.12 L94.9090909,268.761905 L47.4545455,332 L22.1454545,313.028571 L67.0690909,252.952381 L79.4072727,182.6 C81.1472727,170.110476 90.1636364,159.201905 103.134545,156.04 L253.090909,110.666667 L284.727273,47.4285714 L332.181818,0 Z M31.6363636,142.285714 C49.0363636,142.285714 63.2727273,156.514286 63.2727273,173.904762 C63.2727273,191.295238 49.0363636,205.52381 31.6363636,205.52381 C14.2363636,205.52381 0,191.295238 0,173.904762 C0,156.514286 14.2363636,142.285714 31.6363636,142.285714 Z M184.123636,63.2380952 L196.461818,109.085714 L124.805455,128.215238 C112.150909,131.693333 99.18,124.104762 95.7,111.457143 C92.22,98.8095238 99.8127273,85.687619 112.467273,82.367619 L184.123636,63.2380952 Z"></path></clipPath></defs><g clip-path="url(#i0)"><polygon points="0,0 512,0 512,512 0,512 0,0" stroke="none" fill="url(#i1)"></polygon></g><g transform="translate(80.99999999999994 99.0)"><g clip-path="url(#i2)"><polygon points="0,0 348,0 348,332 0,332 0,0" stroke="none" fill="#FFFFFF"></polygon></g></g></svg>